<svg width="36" height="36" viewBox="0 0 36 36" fill="none" xmlns="http://www.w3.org/2000/svg">
<g clip-path="url(#clip0_1649_693)">
<path d="M22.1541 24.1762C23.514 23.0059 24.3766 21.2731 24.3766 19.3425V19.0064C24.3766 15.4904 21.5161 12.6299 18.0001 12.6299C14.484 12.6299 11.6235 15.4904 11.6235 19.0064V19.3425C11.6235 21.2731 12.4861 23.006 13.846 24.1762C9.45518 25.5247 6.25391 29.6176 6.25391 34.4446C6.25391 35.0007 6.70467 35.4514 7.26071 35.4514H28.7394C29.2954 35.4514 29.7462 35.0006 29.7462 34.4446C29.7462 29.6176 26.5449 25.5247 22.1541 24.1762ZM13.6372 19.3426V19.0065C13.6372 16.6007 15.5944 14.6436 18.0001 14.6436C20.4057 14.6436 22.3629 16.6008 22.3629 19.0065V19.3426C22.3629 21.7483 20.4057 23.7054 18.0001 23.7054C15.5944 23.7054 13.6372 21.7482 13.6372 19.3426ZM8.32527 33.4378C8.82586 29.0987 12.5223 25.719 16.9933 25.719H19.0069C23.4778 25.719 27.1742 29.0988 27.6748 33.4378L8.32527 33.4378Z" fill="white"/>
<path d="M23.3684 4.44858C23.2678 4.13905 23.0239 3.89719 22.7135 3.79937L20.2927 3.03655L18.8191 0.970108C18.6302 0.705215 18.3248 0.547852 17.9993 0.547852C17.6738 0.547852 17.3685 0.705215 17.1795 0.970108L15.706 3.03668L13.2853 3.79951C12.9749 3.8974 12.731 4.13919 12.6303 4.44872C12.5298 4.75811 12.585 5.09725 12.7786 5.35879L14.2887 7.39877L14.2661 9.93682C14.2632 10.2622 14.4178 10.5689 14.6811 10.7604C14.8554 10.887 15.063 10.9526 15.273 10.9526C15.3803 10.9526 15.4882 10.9354 15.5926 10.9005L17.9994 10.0947L20.4062 10.9004C20.7148 11.004 21.0543 10.9516 21.3175 10.7602C21.5809 10.5689 21.7355 10.2621 21.7325 9.93669L21.71 7.39864L23.22 5.35865C23.4137 5.09718 23.4689 4.75811 23.3684 4.44858ZM19.8909 6.47168C19.7608 6.6475 19.6914 6.86092 19.6934 7.07967L19.7064 8.54277L18.3189 8.07827C18.2152 8.04347 18.1072 8.02618 17.9992 8.02618C17.8912 8.02618 17.7833 8.04354 17.6796 8.07827L16.2921 8.54277L16.3051 7.0796C16.3071 6.86092 16.2377 6.6475 16.1075 6.47168L15.237 5.29562L16.6326 4.85587C16.8412 4.79017 17.0228 4.65824 17.1497 4.4801L17.9993 3.28879L18.8488 4.4801C18.9758 4.65817 19.1574 4.79004 19.3659 4.85587L20.7614 5.29562L19.8909 6.47168Z" fill="white"/>
<path d="M35.4503 7.46909C35.3498 7.15963 35.1058 6.91777 34.7954 6.81995L32.3747 6.05719L30.9011 3.99062C30.7123 3.72572 30.4068 3.56836 30.0814 3.56836C29.7559 3.56836 29.4505 3.72572 29.2616 3.99062L27.788 6.05719L25.3674 6.81995C25.0569 6.91777 24.813 7.15956 24.7124 7.46909C24.6118 7.77855 24.667 8.11769 24.8607 8.37923L26.3707 10.4193L26.3482 12.9573C26.3452 13.2828 26.4999 13.5895 26.7631 13.7809C27.0265 13.9723 27.3659 14.0242 27.6746 13.9211L30.0814 13.1154L32.4882 13.9211C32.5926 13.9561 32.7004 13.9732 32.8078 13.9732C33.0177 13.9732 33.2254 13.9075 33.3996 13.7809C33.6629 13.5896 33.8175 13.2828 33.8145 12.9573L33.792 10.4193L35.3021 8.37923C35.4957 8.11769 35.551 7.77855 35.4503 7.46909ZM31.973 9.49212C31.8429 9.66801 31.7735 9.88143 31.7755 10.1002L31.7884 11.5633L30.4009 11.0988C30.2972 11.064 30.1893 11.0468 30.0813 11.0468C29.9733 11.0468 29.8654 11.0641 29.7617 11.0988L28.3742 11.5633L28.3871 10.1002C28.3891 9.88143 28.3197 9.66808 28.1897 9.49212L27.3191 8.31613L28.7146 7.87638C28.9232 7.81068 29.1048 7.67875 29.2317 7.5006L30.0812 6.3093L30.9307 7.5006C31.0577 7.67868 31.2393 7.81055 31.4479 7.87638L32.8434 8.31613L31.973 9.49212Z" fill="white"/>
<path d="M11.2873 7.46951C11.1867 7.16005 10.9428 6.91819 10.6324 6.82037L8.21173 6.05761L6.73803 3.9911C6.54909 3.72621 6.24373 3.56885 5.91827 3.56885C5.59281 3.56885 5.28745 3.72621 5.0985 3.9911L3.62494 6.05768L1.2042 6.82044C0.893775 6.91826 0.649869 7.16005 0.549312 7.46958C0.448687 7.77904 0.503989 8.11817 0.697584 8.37972L2.20765 10.4198L2.18509 12.9578C2.18222 13.2832 2.33678 13.5899 2.6001 13.7813C2.86342 13.9727 3.20296 14.0247 3.51153 13.9216L5.91834 13.1159L8.32514 13.9216C8.42939 13.9564 8.53726 13.9735 8.64458 13.9735C8.85451 13.9735 9.06219 13.9078 9.23644 13.7812C9.49969 13.5899 9.65432 13.2831 9.65145 12.9578L9.62889 10.4197L11.139 8.37965C11.3326 8.11817 11.3879 7.77904 11.2873 7.46951ZM7.80991 9.49268C7.67982 9.6685 7.61044 9.88192 7.61235 10.1006L7.62534 11.5638L6.23785 11.0993C6.13415 11.0645 6.02621 11.0472 5.9182 11.0472C5.81019 11.0472 5.70232 11.0646 5.59855 11.0993L4.21106 11.5638L4.22405 10.1006C4.22603 9.88192 4.15664 9.6685 4.02649 9.49268L3.15593 8.31669L4.55149 7.87693C4.76012 7.81124 4.94168 7.6793 5.06863 7.50116L5.91813 6.30986L6.76763 7.50116C6.89465 7.67924 7.07621 7.8111 7.28477 7.87693L8.68033 8.31669L7.80991 9.49268Z" fill="white"/>
</g>
<defs>
<clipPath id="clip0_1649_693">
<rect width="35" height="35" fill="white" transform="translate(0.5 0.499512)"/>
</clipPath>
</defs>
</svg>
