<svg width="36" height="36" viewBox="0 0 36 36" fill="none" xmlns="http://www.w3.org/2000/svg">
<g clip-path="url(#clip0_1649_645)">
<path d="M31.7288 2.69659H28.9102V1.52539C28.9102 0.959102 28.4511 0.5 27.8848 0.5C27.3185 0.5 26.8594 0.959102 26.8594 1.52539V2.69659H22.3203V1.52539C22.3203 0.959102 21.8612 0.5 21.2949 0.5C20.7286 0.5 20.2695 0.959102 20.2695 1.52539V2.69659H15.7305V1.52539C15.7305 0.959102 15.2714 0.5 14.7051 0.5C14.1388 0.5 13.6797 0.959102 13.6797 1.52539V2.69659H9.14062V1.52539C9.14062 0.959102 8.68152 0.5 8.11523 0.5C7.54895 0.5 7.08984 0.959102 7.08984 1.52539V2.69659H4.27111C2.19176 2.69659 0.5 4.38828 0.5 6.46777V31.7288C0.5 33.8082 2.19176 35.5 4.27111 35.5H31.7288C33.8082 35.5 35.5 33.8082 35.5 31.7288V6.46777C35.5 4.38828 33.8082 2.69659 31.7288 2.69659ZM4.27111 4.74737H7.08984V5.91864C7.08984 6.48493 7.54895 6.94403 8.11523 6.94403C8.68152 6.94403 9.14062 6.48493 9.14062 5.91864V4.74737H13.6796V5.91864C13.6796 6.48493 14.1387 6.94403 14.7049 6.94403C15.2712 6.94403 15.7303 6.48493 15.7303 5.91864V4.74737H20.2694V5.91864C20.2694 6.48493 20.7285 6.94403 21.2948 6.94403C21.8611 6.94403 22.3202 6.48493 22.3202 5.91864V4.74737H26.8592V5.91864C26.8592 6.48493 27.3183 6.94403 27.8846 6.94403C28.4509 6.94403 28.91 6.48493 28.91 5.91864V4.74737H31.7286C32.6774 4.74737 33.4492 5.51915 33.4492 6.46777V9.28644H2.55078V6.46777C2.55078 5.51915 3.32256 4.74737 4.27111 4.74737ZM31.7288 33.4492H4.27111C3.32256 33.4492 2.55078 32.6774 2.55078 31.7288V11.3372H33.4492V31.7288C33.4492 32.6774 32.6774 33.4492 31.7288 33.4492Z" fill="white"/>
<path d="M10.861 14.7783H6.46777C5.90148 14.7783 5.44238 15.2374 5.44238 15.8037V20.1969C5.44238 20.7632 5.90148 21.2223 6.46777 21.2223H10.8611C11.4274 21.2223 11.8865 20.7632 11.8865 20.1969V15.8037C11.8864 15.2374 11.4274 14.7783 10.861 14.7783ZM9.83563 19.1715H7.4931V16.8291H9.83563V19.1715Z" fill="white"/>
<path d="M29.5328 14.7783H25.1396C24.5734 14.7783 24.1143 15.2374 24.1143 15.8037V20.1969C24.1143 20.7632 24.5734 21.2223 25.1396 21.2223H29.5328C30.0991 21.2223 30.5582 20.7632 30.5582 20.1969V15.8037C30.5582 15.2374 30.0991 14.7783 29.5328 14.7783ZM28.5074 19.1715H26.165V16.8291H28.5074V19.1715Z" fill="white"/>
<path d="M10.861 23.5645H6.46777C5.90148 23.5645 5.44238 24.0236 5.44238 24.5898V28.983C5.44238 29.5493 5.90148 30.0084 6.46777 30.0084H10.8611C11.4274 30.0084 11.8865 29.5493 11.8865 28.983V24.5898C11.8864 24.0236 11.4274 23.5645 10.861 23.5645ZM9.83563 27.9576H7.4931V25.6152H9.83563V27.9576Z" fill="white"/>
<path d="M29.5328 23.5645H25.1396C24.5734 23.5645 24.1143 24.0236 24.1143 24.5898V28.983C24.1143 29.5493 24.5734 30.0084 25.1396 30.0084H29.5328C30.0991 30.0084 30.5582 29.5493 30.5582 28.983V24.5898C30.5582 24.0236 30.0991 23.5645 29.5328 23.5645ZM28.5074 27.9576H26.165V25.6152H28.5074V27.9576Z" fill="white"/>
<path d="M20.1961 23.5645H15.8027C15.2364 23.5645 14.7773 24.0236 14.7773 24.5898V28.983C14.7773 29.5493 15.2364 30.0084 15.8027 30.0084H20.1961C20.7623 30.0084 21.2214 29.5493 21.2214 28.983V24.5898C21.2214 24.0236 20.7623 23.5645 20.1961 23.5645ZM19.1707 27.9576H16.8281V25.6152H19.1707V27.9576Z" fill="white"/>
<path d="M19.6054 15.7217L17.2242 18.1031L16.396 17.2748C15.9956 16.8744 15.3463 16.8744 14.9458 17.2748C14.5454 17.6753 14.5454 18.3245 14.9458 18.725L16.4992 20.2783C16.6915 20.4706 16.9523 20.5787 17.2242 20.5787C17.4962 20.5787 17.757 20.4706 17.9493 20.2783L21.0556 17.1718C21.456 16.7714 21.456 16.1222 21.0556 15.7217C20.6551 15.3213 20.0059 15.3213 19.6054 15.7217Z" fill="white"/>
</g>
<defs>
<clipPath id="clip0_1649_645">
<rect width="35" height="35" fill="white" transform="translate(0.5 0.5)"/>
</clipPath>
</defs>
</svg>
