<svg width="36" height="36" viewBox="0 0 36 36" fill="none" xmlns="http://www.w3.org/2000/svg">
<g clip-path="url(#clip0_1649_668)">
<path d="M24.659 4.58203C23.2155 4.58203 21.9879 5.52047 21.5518 6.81895L10.1827 11.4312H4.62029C2.34837 11.4312 0.5 13.2796 0.5 15.5516V18.3008C0.5 20.5727 2.34837 22.4211 4.62029 22.4211H5.24947V28.2983C5.24947 30.0188 6.6492 31.4185 8.36967 31.4185C10.0901 31.4185 11.4898 30.0188 11.4898 28.2983V22.9514L21.6498 27.0732C22.1534 28.2368 23.3125 29.0533 24.659 29.0533C26.4662 29.0533 27.9365 27.583 27.9365 25.7757V7.85959C27.9365 6.05237 26.4662 4.58203 24.659 4.58203ZM11.4898 13.2616L21.3815 9.24872V24.6036L11.4898 20.5907V13.2616ZM2.6875 18.3007V15.5516C2.6875 14.4859 3.55457 13.6188 4.62029 13.6188H9.30229V20.2336H4.62029C3.55457 20.2335 2.6875 19.3665 2.6875 18.3007ZM8.36967 29.2309C7.8554 29.2309 7.43704 28.8125 7.43704 28.2982V22.421H9.30236V28.2982C9.3023 28.8125 8.88394 29.2309 8.36967 29.2309ZM25.749 25.7756C25.749 26.3766 25.26 26.8657 24.659 26.8657C24.0579 26.8657 23.5689 26.3767 23.5689 25.7756V7.85959C23.5689 7.25857 24.0579 6.76953 24.659 6.76953C25.26 6.76953 25.7489 7.25851 25.7489 7.85959V25.7756H25.749ZM35.5 16.8176C35.5 17.4216 35.0103 17.9114 34.4062 17.9114H31.6972C31.0932 17.9114 30.6035 17.4216 30.6035 16.8176C30.6035 16.2136 31.0932 15.7239 31.6972 15.7239H34.4062C35.0103 15.7239 35.5 16.2136 35.5 16.8176ZM29.5145 12.7535C29.2124 12.2304 29.3917 11.5615 29.9148 11.2594L32.2609 9.90497C32.784 9.60282 33.4529 9.7822 33.7549 10.3053C34.0569 10.8284 33.8777 11.4973 33.3546 11.7993L31.0085 13.1538C30.8362 13.2533 30.6482 13.3005 30.4627 13.3005C30.0847 13.3005 29.7171 13.1044 29.5145 12.7535ZM33.7551 23.33C33.5525 23.6809 33.1848 23.877 32.8068 23.877C32.6213 23.877 32.4332 23.8298 32.2609 23.7303L29.9148 22.3758C29.3917 22.0738 29.2124 21.4048 29.5145 20.8817C29.8165 20.3586 30.4854 20.1795 31.0086 20.4814L33.3547 21.8359C33.8778 22.1379 34.0571 22.8068 33.7551 23.33Z" fill="white"/>
</g>
<defs>
<clipPath id="clip0_1649_668">
<rect width="35" height="35" fill="white" transform="translate(0.5 0.5)"/>
</clipPath>
</defs>
</svg>
