<svg width="35" height="35" viewBox="0 0 35 35" fill="none" xmlns="http://www.w3.org/2000/svg">
<g clip-path="url(#clip0_1649_660)">
<path d="M2.42033 14.0693C1.34169 14.8917 0 15.9156 0 17.5C0 19.0844 1.34169 20.1083 2.42033 20.9309C2.86961 21.2325 3.27537 21.5943 3.62625 22.0063C3.60018 22.5799 3.48491 23.1459 3.2845 23.6839C2.90778 24.9592 2.43864 26.5465 3.34282 27.7883C4.25355 29.0402 5.91729 29.0821 7.25393 29.1164C7.81618 29.0939 8.37873 29.1544 8.92336 29.2958C9.2228 29.7656 9.45146 30.2769 9.60198 30.8132C10.0484 32.0835 10.6039 33.6643 12.0917 34.1479C12.3553 34.2343 12.631 34.2783 12.9084 34.2782C14.0282 34.2782 15.0507 33.5754 15.9736 32.9416C16.4327 32.575 16.9482 32.2851 17.5 32.0833C18.0521 32.2849 18.5679 32.5747 19.0271 32.9414C20.1696 33.7261 21.4653 34.614 22.909 34.1477C24.3965 33.6642 24.952 32.0841 25.3984 30.8137C25.5486 30.28 25.7748 29.7706 26.0699 29.3013C26.6163 29.1555 27.1816 29.0933 27.7466 29.1168C29.0832 29.0827 30.7469 29.0406 31.6576 27.7888C32.5618 26.5462 32.0927 24.959 31.716 23.6836C31.5179 23.1484 31.4016 22.5865 31.371 22.0166C31.7203 21.5988 32.1276 21.2332 32.5805 20.9307C33.6585 20.1083 35.0001 19.0844 35.0001 17.5C35.0001 15.9156 33.6584 14.8917 32.5798 14.0692C32.1305 13.7676 31.7247 13.4057 31.3739 12.9938C31.3999 12.4202 31.5152 11.8542 31.7156 11.3161C32.0923 10.0408 32.5615 8.45365 31.6573 7.21173C30.7466 5.95989 29.0828 5.91793 27.7462 5.88371C27.1839 5.90616 26.6214 5.84571 26.0768 5.70425C25.7773 5.23448 25.5487 4.7232 25.3981 4.18684C24.9522 2.91668 24.3965 1.33589 22.9087 0.852342C21.4649 0.383144 20.1693 1.27458 19.0268 2.0586C18.5677 2.42515 18.0522 2.71495 17.5004 2.91668C16.9483 2.71518 16.4326 2.42538 15.9734 2.0586C14.8309 1.27395 13.5349 0.385211 12.0915 0.852342C10.604 1.33583 10.0486 2.91588 9.6021 4.18632C9.45192 4.72005 9.22573 5.22937 8.93059 5.69874C8.38424 5.8445 7.81894 5.90673 7.25393 5.88319C5.91735 5.91729 4.2536 5.95937 3.34288 7.21116C2.4387 8.45382 2.90778 10.041 3.28455 11.3164C3.48261 11.8516 3.59892 12.4135 3.62952 12.9834C3.2803 13.4012 2.87311 13.7668 2.42033 14.0693ZM4.18948 16.388C5.10525 15.6894 6.05226 14.9674 6.40084 13.8936C6.76045 12.7853 6.39981 11.5658 6.08183 10.4899C5.91046 9.98897 5.79312 9.47121 5.73181 8.94541C6.25709 8.83914 6.79237 8.79029 7.32827 8.79959C8.49928 8.77042 9.71054 8.73908 10.6445 8.05971C11.569 7.38608 11.9682 6.25175 12.3538 5.15377C12.5107 4.63554 12.7248 4.13638 12.9922 3.66552C13.4611 3.88568 13.9065 4.15274 14.3217 4.46257C15.2566 5.10497 16.3166 5.83342 17.5 5.83342C18.6834 5.83342 19.7434 5.10572 20.6784 4.46257C21.0937 4.15257 21.5394 3.88533 22.0085 3.66506C22.276 4.13609 22.4901 4.63548 22.6469 5.154C23.0325 6.25124 23.4313 7.38562 24.3562 8.05919C25.2902 8.73856 26.501 8.76985 27.6721 8.79982C28.2081 8.78977 28.7436 8.83868 29.2689 8.94563C29.2073 9.47092 29.09 9.98822 28.9189 10.4887C28.6006 11.5653 28.2399 12.7852 28.5996 13.8931C28.9485 14.967 29.8951 15.689 30.8105 16.3875C31.2731 16.704 31.6937 17.0778 32.0624 17.5C31.6935 17.9219 31.2729 18.2957 30.8105 18.6123C29.8947 19.3109 28.9477 20.0329 28.5992 21.1067C28.2396 22.215 28.6002 23.4345 28.9182 24.5104C29.0895 25.0113 29.2069 25.5291 29.2682 26.0549C28.7429 26.1611 28.2076 26.21 27.6717 26.2007C26.5007 26.2299 25.2895 26.2612 24.3555 26.9406C23.431 27.6142 23.0318 28.7489 22.6462 29.8465C22.4893 30.3647 22.2752 30.8639 22.0078 31.3348C21.5389 31.1146 21.0935 30.8474 20.6784 30.5375C19.7434 29.8951 18.6834 29.1666 17.5 29.1666C16.3166 29.1666 15.2566 29.8943 14.3217 30.5375C13.9063 30.8475 13.4607 31.1147 12.9915 31.335C12.7241 30.864 12.5099 30.3646 12.3532 29.8461C11.9675 28.7488 11.5688 27.6144 10.6438 26.9409C9.70991 26.2615 8.49905 26.2302 7.32804 26.2002C6.79202 26.2103 6.25652 26.1614 5.73118 26.0544C5.79277 25.5291 5.91012 25.0118 6.08119 24.5114C6.39952 23.4347 6.76022 22.2149 6.40056 21.1069C6.05214 20.0329 5.10531 19.3109 4.18994 18.6123C3.72723 18.2959 3.30648 17.9222 2.93775 17.5C3.30666 17.0781 3.72723 16.7045 4.18959 16.3877V16.388H4.18948Z" fill="white"/>
<path d="M15.6768 22.6037C16.0636 22.6043 16.4347 22.4505 16.7079 22.1765L23.9995 14.8849C24.5763 14.3226 24.588 13.3993 24.0257 12.8226C23.4635 12.2459 22.5402 12.2342 21.9635 12.7965C21.9546 12.8051 21.9459 12.8138 21.9373 12.8226L15.6768 19.0833L13.0621 16.4685C12.4998 15.8919 11.5765 15.8802 10.9998 16.4424C10.4232 17.0047 10.4115 17.928 10.9737 18.5046C10.9823 18.5135 10.9911 18.5222 10.9998 18.5307L14.6457 22.1766C14.9188 22.4505 15.2899 22.6043 15.6768 22.6037Z" fill="white"/>
</g>
<defs>
<clipPath id="clip0_1649_660">
<rect width="35" height="35" fill="white"/>
</clipPath>
</defs>
</svg>
