<svg width="35" height="35" viewBox="0 0 35 35" fill="none" xmlns="http://www.w3.org/2000/svg">
<g clip-path="url(#clip0_1649_675)">
<path d="M32.5848 20.5083C32.7805 19.521 32.8809 18.512 32.8809 17.5C32.8809 14.4132 31.9816 11.4673 30.274 8.93054C30.54 8.47554 30.6934 7.94691 30.6934 7.38281C30.6934 5.68661 29.3134 4.30664 27.6172 4.30664C27.0531 4.30664 26.5245 4.45997 26.0695 4.72603C23.5327 3.01841 20.5868 2.11914 17.5 2.11914C16.488 2.11914 15.479 2.21949 14.4918 2.41521C12.9523 0.921348 10.8544 0 8.54492 0C3.83325 0 0 3.83325 0 8.54492C0 10.8544 0.921348 12.9523 2.41521 14.4918C2.21949 15.479 2.11914 16.488 2.11914 17.5C2.11914 20.5868 3.01841 23.5327 4.72603 26.0695C4.45997 26.5245 4.30664 27.0531 4.30664 27.6172C4.30664 29.3134 5.68661 30.6934 7.38281 30.6934C7.94691 30.6934 8.47554 30.54 8.93054 30.274C11.4673 31.9816 14.4132 32.8809 17.5 32.8809C18.512 32.8809 19.5211 32.7804 20.5083 32.5848C22.0477 34.0787 24.1456 35 26.4551 35C31.1667 35 35 31.1667 35 26.4551C35 24.1456 34.0787 22.0477 32.5848 20.5083ZM28.6426 7.38281C28.6426 7.94821 28.1826 8.4082 27.6172 8.4082C27.0518 8.4082 26.5918 7.94821 26.5918 7.38281C26.5918 6.81741 27.0518 6.35742 27.6172 6.35742C28.1826 6.35742 28.6426 6.81741 28.6426 7.38281ZM8.54492 2.05078C12.1258 2.05078 15.0391 4.96405 15.0391 8.54492C15.0391 10.0598 14.5176 11.455 13.6449 12.561C13.4476 11.5599 12.9592 10.6395 12.2214 9.90179C11.8947 9.5753 11.5315 9.29886 11.142 9.07361C11.5002 8.56078 11.7112 7.93782 11.7112 7.26619C11.7112 5.52125 10.2915 4.10156 8.54649 4.10156C6.80155 4.10156 5.38187 5.52125 5.38187 7.26619C5.38187 7.93905 5.59357 8.56304 5.95301 9.07642C4.67831 9.81381 3.74411 11.0759 3.44907 12.5661C2.57394 11.4594 2.05078 10.0622 2.05078 8.54492C2.05078 4.96405 4.96405 2.05078 8.54492 2.05078ZM8.54649 8.38004C7.93235 8.38004 7.43265 7.88033 7.43265 7.26619C7.43265 6.65205 7.93235 6.15234 8.54649 6.15234C9.1607 6.15234 9.66034 6.65205 9.66034 7.26619C9.66041 7.8804 9.1607 8.38004 8.54649 8.38004ZM8.54629 10.431C9.3867 10.431 10.1771 10.7583 10.7717 11.3522C11.3657 11.9463 11.6929 12.7364 11.6929 13.5769V14.2233C10.7598 14.7427 9.68639 15.0391 8.54492 15.0391C7.40482 15.0391 6.33268 14.7433 5.40039 14.2252V13.5769C5.40039 11.8422 6.81167 10.431 8.54629 10.431ZM6.35742 27.6172C6.35742 27.0518 6.81741 26.5918 7.38281 26.5918C7.94821 26.5918 8.4082 27.0518 8.4082 27.6172C8.4082 28.1826 7.94821 28.6426 7.38281 28.6426C6.81741 28.6426 6.35742 28.1826 6.35742 27.6172ZM10.263 28.6966C10.3894 28.3605 10.459 27.9969 10.459 27.6172C10.459 25.921 9.07901 24.541 7.38281 24.541C7.00314 24.541 6.63954 24.6106 6.30342 24.737C4.9052 22.5823 4.16992 20.099 4.16992 17.5C4.16992 16.9765 4.20048 16.454 4.26104 15.936C5.52125 16.6693 6.98482 17.0898 8.54492 17.0898C13.2566 17.0898 17.0898 13.2566 17.0898 8.54492C17.0898 6.98482 16.6693 5.52125 15.936 4.26104C16.454 4.20048 16.9765 4.16992 17.5 4.16992C20.099 4.16992 22.5824 4.9052 24.737 6.30342C24.6106 6.63954 24.541 7.00314 24.541 7.38281C24.541 9.07901 25.921 10.459 27.6172 10.459C27.9969 10.459 28.3605 10.3894 28.6966 10.263C30.0949 12.4176 30.8301 14.901 30.8301 17.5C30.8301 18.0235 30.7995 18.546 30.739 19.064C29.4788 18.3308 28.0152 17.9102 26.4551 17.9102C21.7434 17.9102 17.9102 21.7434 17.9102 26.4551C17.9102 28.0152 18.3307 29.4788 19.064 30.739C18.546 30.7995 18.0235 30.8301 17.5 30.8301C14.901 30.8301 12.4177 30.0948 10.263 28.6966ZM23.3105 32.1354V31.487C23.3105 29.7524 24.7218 28.3411 26.4564 28.3411C27.2969 28.3411 28.0872 28.6684 28.6818 29.2624C29.2759 29.8565 29.6031 30.6465 29.6031 31.487V32.1335C28.6699 32.6528 27.5965 32.9492 26.4551 32.9492C25.315 32.9492 24.2428 32.6535 23.3105 32.1354ZM26.4567 26.2902C25.8425 26.2902 25.3428 25.7905 25.3428 25.1763C25.3428 24.5622 25.8425 24.0625 26.4567 24.0625C27.0708 24.0625 27.5705 24.5622 27.5705 25.1763C27.5705 25.7906 27.0709 26.2902 26.4567 26.2902ZM31.555 30.4711C31.3577 29.4701 30.8693 28.5497 30.1315 27.8119C29.8048 27.4855 29.4416 27.209 29.0521 26.9838C29.4103 26.4709 29.6213 25.848 29.6213 25.1763C29.6213 23.4314 28.2016 22.0117 26.4567 22.0117C24.7117 22.0117 23.292 23.4314 23.292 25.1763C23.292 25.8492 23.5037 26.4732 23.8632 26.9865C22.5885 27.7239 21.6543 28.986 21.3592 30.4762C20.4841 29.3695 19.9609 27.9723 19.9609 26.4551C19.9609 22.8742 22.8742 19.9609 26.4551 19.9609C30.0359 19.9609 32.9492 22.8742 32.9492 26.4551C32.9492 27.9699 32.4278 29.3652 31.555 30.4711Z" fill="white"/>
</g>
<defs>
<clipPath id="clip0_1649_675">
<rect width="35" height="35" fill="white"/>
</clipPath>
</defs>
</svg>
