<?xml version="1.0" encoding="UTF-8"?>
<svg id="Layer_1" xmlns="http://www.w3.org/2000/svg" version="1.1" xmlns:xlink="http://www.w3.org/1999/xlink" viewBox="0 0 305.64 130.55">
  <!-- Generator: Adobe Illustrator 29.3.1, SVG Export Plug-In . SVG Version: 2.1.0 Build 151)  -->
  <defs>
    <style>
      .st0 {
        fill: #231f20;
      }

      .st1 {
        fill: #fff;
      }

      .st2 {
        fill: url(#linear-gradient);
      }
    </style>
    <linearGradient id="linear-gradient" x1="17.22" y1="61.44" x2="106.07" y2="61.44" gradientUnits="userSpaceOnUse">
      <stop offset="0" stop-color="#7c55a3"/>
      <stop offset=".49" stop-color="#5f4491"/>
      <stop offset="1" stop-color="#3e307d"/>
    </linearGradient>
  </defs>
  <g>
    <rect class="st2" x="17.22" y="17.02" width="88.85" height="88.85" rx="16.76" ry="16.76"/>
    <g>
      <g>
        <rect class="st1" x="63.33" y="48.71" width="5.42" height="8.01" rx="2.38" ry="2.38" transform="translate(37.44 132.23) rotate(-108.82)"/>
        <path class="st1" d="M45.38,56.9l6.76,19.84c2.56,7.51,6.98,9.56,11.45,8.03,4.97-1.69,7.04-6.06,4.51-13.47l-6.76-19.84,4.38-1.49,6.66,19.54c3.51,10.29-.47,16.37-7.73,18.84-6.86,2.34-13.37.17-16.91-10.22l-6.73-19.74,4.38-1.49Z"/>
      </g>
      <path class="st1" d="M77.9,65.98l-6.76-19.84c-2.56-7.51-6.98-9.56-11.45-8.03-4.97,1.69-7.04,6.06-4.51,13.47l6.76,19.84-4.38,1.49-6.66-19.54c-3.51-10.29.47-16.37,7.73-18.84,6.86-2.34,13.37-.17,16.91,10.22l6.73,19.74-4.38,1.49Z"/>
      <rect class="st1" x="58.3" y="65.43" width="4.62" height="8.01" transform="translate(106.78 -10.33) rotate(71.18)"/>
    </g>
  </g>
  <g>
    <path class="st0" d="M128.8,73.43v-29.01h3.42v26.05h14.65v2.96h-18.07Z"/>
    <path class="st0" d="M148.3,82.77l-.78-2.76c1.29-.3,2.37-.65,3.23-1.05.86-.4,1.58-.93,2.16-1.58.58-.66,1.07-1.48,1.48-2.47l1.07-2.43-.08,1.4-9.01-21.11h3.62l7.45,18.15h-1.07l7.37-18.15h3.5l-9.55,22.39c-.55,1.32-1.15,2.42-1.81,3.31-.66.89-1.37,1.62-2.12,2.18-.75.56-1.58,1.01-2.49,1.34-.91.33-1.89.59-2.96.78Z"/>
    <path class="st0" d="M170.98,73.43v-15.89c0-.77-.04-1.56-.1-2.37-.07-.81-.14-1.61-.23-2.41h3.21l.41,4.53h-.49c.6-1.59,1.57-2.81,2.9-3.64,1.33-.84,2.87-1.26,4.63-1.26,2.44,0,4.29.65,5.54,1.96,1.25,1.3,1.87,3.35,1.87,6.15v12.92h-3.33v-12.72c0-1.95-.39-3.37-1.17-4.26-.78-.89-2-1.34-3.64-1.34-1.92,0-3.44.59-4.57,1.77-1.12,1.18-1.69,2.76-1.69,4.73v11.81h-3.33Z"/>
    <path class="st0" d="M195.1,73.43v-30.29h3.33v18.81h.08l9.59-9.18h4.2l-11.32,10.78.08-1.69,12.31,11.56h-4.32l-10.54-9.71h-.08v9.71h-3.33Z"/>
    <path class="st0" d="M238.84,73.8c-3.92,0-6.84-1-8.75-3-1.91-2-2.86-4.95-2.86-8.85v-17.53h3.37v17.37c0,2.99.66,5.24,1.98,6.75,1.32,1.51,3.4,2.26,6.26,2.26,2.69,0,4.73-.75,6.13-2.26,1.4-1.51,2.1-3.76,2.1-6.75v-17.37h3.37v17.53c0,3.9-.98,6.85-2.94,8.85-1.96,2-4.85,3-8.66,3Z"/>
    <path class="st0" d="M257.08,82.32v-24.78c0-.77-.04-1.56-.1-2.37-.07-.81-.14-1.61-.23-2.41h3.21l.45,4.9h-.49c.44-1.62,1.33-2.9,2.68-3.85,1.34-.95,2.95-1.42,4.81-1.42s3.48.43,4.84,1.28c1.36.85,2.42,2.07,3.19,3.66.77,1.59,1.15,3.51,1.15,5.76s-.38,4.13-1.13,5.72c-.75,1.59-1.82,2.82-3.19,3.68-1.37.86-2.99,1.3-4.86,1.3s-3.43-.47-4.77-1.4c-1.34-.93-2.24-2.21-2.67-3.83h.45v13.75h-3.33ZM266.75,71.08c1.98,0,3.55-.68,4.71-2.04,1.17-1.36,1.75-3.34,1.75-5.95s-.58-4.63-1.75-5.99c-1.17-1.36-2.74-2.04-4.71-2.04s-3.51.68-4.67,2.04c-1.17,1.36-1.75,3.35-1.75,5.99s.58,4.59,1.75,5.95c1.17,1.36,2.72,2.04,4.67,2.04Z"/>
  </g>
</svg>